%TF.GenerationSoftware,KiCad,Pcbnew,7.0.5*%
%TF.CreationDate,2023-06-06T12:25:19+02:00*%
%TF.ProjectId,biosensor,62696f73-656e-4736-9f72-2e6b69636164,rev?*%
%TF.SameCoordinates,Original*%
%TF.FileFunction,Soldermask,Bot*%
%TF.FilePolarity,Negative*%
%FSLAX46Y46*%
G04 Gerber Fmt 4.6, Leading zero omitted, Abs format (unit mm)*
G04 Created by KiCad (PCBNEW 7.0.5) date 2023-06-06 12:25:19*
%MOMM*%
%LPD*%
G01*
G04 APERTURE LIST*
G04 Aperture macros list*
%AMRoundRect*
0 Rectangle with rounded corners*
0 $1 Rounding radius*
0 $2 $3 $4 $5 $6 $7 $8 $9 X,Y pos of 4 corners*
0 Add a 4 corners polygon primitive as box body*
4,1,4,$2,$3,$4,$5,$6,$7,$8,$9,$2,$3,0*
0 Add four circle primitives for the rounded corners*
1,1,$1+$1,$2,$3*
1,1,$1+$1,$4,$5*
1,1,$1+$1,$6,$7*
1,1,$1+$1,$8,$9*
0 Add four rect primitives between the rounded corners*
20,1,$1+$1,$2,$3,$4,$5,0*
20,1,$1+$1,$4,$5,$6,$7,0*
20,1,$1+$1,$6,$7,$8,$9,0*
20,1,$1+$1,$8,$9,$2,$3,0*%
G04 Aperture macros list end*
%ADD10C,0.800000*%
%ADD11C,5.400000*%
%ADD12C,2.000000*%
%ADD13RoundRect,0.250000X-0.350000X-0.625000X0.350000X-0.625000X0.350000X0.625000X-0.350000X0.625000X0*%
%ADD14O,1.200000X1.750000*%
%ADD15R,3.000000X3.000000*%
%ADD16C,3.000000*%
%ADD17C,0.650000*%
%ADD18O,1.000000X2.100000*%
%ADD19O,1.000000X1.600000*%
G04 APERTURE END LIST*
D10*
%TO.C,H2*%
X167598011Y-86944000D03*
X168191120Y-85512109D03*
X168191120Y-88375891D03*
X169623011Y-84919000D03*
D11*
X169623011Y-86944000D03*
D10*
X169623011Y-88969000D03*
X171054902Y-85512109D03*
X171054902Y-88375891D03*
X171648011Y-86944000D03*
%TD*%
D12*
%TO.C,SW3*%
X170750000Y-107750000D03*
X170750000Y-114250000D03*
X166250000Y-107750000D03*
X166250000Y-114250000D03*
%TD*%
D13*
%TO.C,J1*%
X107800000Y-96550000D03*
D14*
X109800000Y-96550000D03*
%TD*%
D10*
%TO.C,H1*%
X107598011Y-86944000D03*
X108191120Y-85512109D03*
X108191120Y-88375891D03*
X109623011Y-84919000D03*
D11*
X109623011Y-86944000D03*
D10*
X109623011Y-88969000D03*
X111054902Y-85512109D03*
X111054902Y-88375891D03*
X111648011Y-86944000D03*
%TD*%
%TO.C,H4*%
X107598011Y-127944000D03*
X108191120Y-126512109D03*
X108191120Y-129375891D03*
X109623011Y-125919000D03*
D11*
X109623011Y-127944000D03*
D10*
X109623011Y-129969000D03*
X111054902Y-126512109D03*
X111054902Y-129375891D03*
X111648011Y-127944000D03*
%TD*%
D15*
%TO.C,J2*%
X120463011Y-127444000D03*
D16*
X125543011Y-127444000D03*
X130623011Y-127444000D03*
%TD*%
D10*
%TO.C,H3*%
X167598011Y-127944000D03*
X168191120Y-126512109D03*
X168191120Y-129375891D03*
X169623011Y-125919000D03*
D11*
X169623011Y-127944000D03*
D10*
X169623011Y-129969000D03*
X171054902Y-126512109D03*
X171054902Y-129375891D03*
X171648011Y-127944000D03*
%TD*%
D17*
%TO.C,P1*%
X142513011Y-73544000D03*
X136733011Y-73544000D03*
D18*
X143943011Y-74074000D03*
D19*
X143943011Y-69894000D03*
D18*
X135303011Y-74074000D03*
D19*
X135303011Y-69894000D03*
%TD*%
D12*
%TO.C,SW2*%
X160250000Y-107750000D03*
X160250000Y-114250000D03*
X155750000Y-107750000D03*
X155750000Y-114250000D03*
%TD*%
M02*
