%TF.GenerationSoftware,KiCad,Pcbnew,7.0.5*%
%TF.CreationDate,2023-06-06T12:25:19+02:00*%
%TF.ProjectId,biosensor,62696f73-656e-4736-9f72-2e6b69636164,rev?*%
%TF.SameCoordinates,Original*%
%TF.FileFunction,Paste,Top*%
%TF.FilePolarity,Positive*%
%FSLAX46Y46*%
G04 Gerber Fmt 4.6, Leading zero omitted, Abs format (unit mm)*
G04 Created by KiCad (PCBNEW 7.0.5) date 2023-06-06 12:25:19*
%MOMM*%
%LPD*%
G01*
G04 APERTURE LIST*
G04 Aperture macros list*
%AMRoundRect*
0 Rectangle with rounded corners*
0 $1 Rounding radius*
0 $2 $3 $4 $5 $6 $7 $8 $9 X,Y pos of 4 corners*
0 Add a 4 corners polygon primitive as box body*
4,1,4,$2,$3,$4,$5,$6,$7,$8,$9,$2,$3,0*
0 Add four circle primitives for the rounded corners*
1,1,$1+$1,$2,$3*
1,1,$1+$1,$4,$5*
1,1,$1+$1,$6,$7*
1,1,$1+$1,$8,$9*
0 Add four rect primitives between the rounded corners*
20,1,$1+$1,$2,$3,$4,$5,0*
20,1,$1+$1,$4,$5,$6,$7,0*
20,1,$1+$1,$6,$7,$8,$9,0*
20,1,$1+$1,$8,$9,$2,$3,0*%
%AMFreePoly0*
4,1,6,0.725000,-0.725000,-0.725000,-0.725000,-0.725000,0.125000,-0.125000,0.725000,0.725000,0.725000,0.725000,-0.725000,0.725000,-0.725000,$1*%
G04 Aperture macros list end*
%ADD10RoundRect,0.237500X0.300000X0.237500X-0.300000X0.237500X-0.300000X-0.237500X0.300000X-0.237500X0*%
%ADD11RoundRect,0.237500X0.237500X-0.250000X0.237500X0.250000X-0.237500X0.250000X-0.237500X-0.250000X0*%
%ADD12RoundRect,0.225000X0.225000X-0.225000X0.225000X0.225000X-0.225000X0.225000X-0.225000X-0.225000X0*%
%ADD13RoundRect,0.062500X0.062500X-0.337500X0.062500X0.337500X-0.062500X0.337500X-0.062500X-0.337500X0*%
%ADD14RoundRect,0.062500X0.337500X-0.062500X0.337500X0.062500X-0.337500X0.062500X-0.337500X-0.062500X0*%
%ADD15RoundRect,0.237500X-0.237500X0.250000X-0.237500X-0.250000X0.237500X-0.250000X0.237500X0.250000X0*%
%ADD16R,1.600000X0.850000*%
%ADD17R,2.440000X1.120000*%
%ADD18RoundRect,0.250000X0.450000X-0.325000X0.450000X0.325000X-0.450000X0.325000X-0.450000X-0.325000X0*%
%ADD19RoundRect,0.237500X-0.237500X0.300000X-0.237500X-0.300000X0.237500X-0.300000X0.237500X0.300000X0*%
%ADD20R,0.400000X0.800000*%
%ADD21R,0.800000X0.400000*%
%ADD22FreePoly0,270.000000*%
%ADD23R,1.450000X1.450000*%
%ADD24R,0.700000X0.700000*%
%ADD25RoundRect,0.237500X0.237500X-0.300000X0.237500X0.300000X-0.237500X0.300000X-0.237500X-0.300000X0*%
%ADD26R,0.450000X1.450000*%
%ADD27RoundRect,0.237500X0.250000X0.237500X-0.250000X0.237500X-0.250000X-0.237500X0.250000X-0.237500X0*%
%ADD28RoundRect,0.150000X0.587500X0.150000X-0.587500X0.150000X-0.587500X-0.150000X0.587500X-0.150000X0*%
%ADD29RoundRect,0.237500X-0.250000X-0.237500X0.250000X-0.237500X0.250000X0.237500X-0.250000X0.237500X0*%
%ADD30R,5.400000X2.900000*%
%ADD31RoundRect,0.200000X0.200000X0.275000X-0.200000X0.275000X-0.200000X-0.275000X0.200000X-0.275000X0*%
%ADD32RoundRect,0.250000X0.255000X0.255000X-0.255000X0.255000X-0.255000X-0.255000X0.255000X-0.255000X0*%
%ADD33RoundRect,0.062500X0.350000X0.062500X-0.350000X0.062500X-0.350000X-0.062500X0.350000X-0.062500X0*%
%ADD34RoundRect,0.062500X0.062500X0.350000X-0.062500X0.350000X-0.062500X-0.350000X0.062500X-0.350000X0*%
%ADD35RoundRect,0.225000X0.225000X0.375000X-0.225000X0.375000X-0.225000X-0.375000X0.225000X-0.375000X0*%
%ADD36R,1.500000X2.000000*%
%ADD37R,3.800000X2.000000*%
%ADD38RoundRect,0.250000X-1.500000X-0.650000X1.500000X-0.650000X1.500000X0.650000X-1.500000X0.650000X0*%
%ADD39RoundRect,0.237500X-0.300000X-0.237500X0.300000X-0.237500X0.300000X0.237500X-0.300000X0.237500X0*%
%ADD40RoundRect,0.200000X0.275000X-0.200000X0.275000X0.200000X-0.275000X0.200000X-0.275000X-0.200000X0*%
%ADD41RoundRect,0.150000X-0.200000X0.150000X-0.200000X-0.150000X0.200000X-0.150000X0.200000X0.150000X0*%
%ADD42R,0.600000X1.450000*%
%ADD43R,0.300000X1.450000*%
%ADD44RoundRect,0.150000X0.150000X0.200000X-0.150000X0.200000X-0.150000X-0.200000X0.150000X-0.200000X0*%
G04 APERTURE END LIST*
D10*
%TO.C,C8*%
X149600989Y-89620800D03*
X147875989Y-89620800D03*
%TD*%
D11*
%TO.C,R3*%
X130853050Y-80798500D03*
X130853050Y-78973500D03*
%TD*%
D12*
%TO.C,U4*%
X144276989Y-86052800D03*
X145396989Y-86052800D03*
X146516989Y-86052800D03*
X144276989Y-84932800D03*
X145396989Y-84932800D03*
X146516989Y-84932800D03*
X144276989Y-83812800D03*
X145396989Y-83812800D03*
X146516989Y-83812800D03*
D13*
X143896989Y-87382800D03*
X144396989Y-87382800D03*
X144896989Y-87382800D03*
X145396989Y-87382800D03*
X145896989Y-87382800D03*
X146396989Y-87382800D03*
X146896989Y-87382800D03*
D14*
X147846989Y-86432800D03*
X147846989Y-85932800D03*
X147846989Y-85432800D03*
X147846989Y-84932800D03*
X147846989Y-84432800D03*
X147846989Y-83932800D03*
X147846989Y-83432800D03*
D13*
X146896989Y-82482800D03*
X146396989Y-82482800D03*
X145896989Y-82482800D03*
X145396989Y-82482800D03*
X144896989Y-82482800D03*
X144396989Y-82482800D03*
X143896989Y-82482800D03*
D14*
X142946989Y-83432800D03*
X142946989Y-83932800D03*
X142946989Y-84432800D03*
X142946989Y-84932800D03*
X142946989Y-85432800D03*
X142946989Y-85932800D03*
X142946989Y-86432800D03*
%TD*%
D15*
%TO.C,R16*%
X138800000Y-86187500D03*
X138800000Y-88012500D03*
%TD*%
D16*
%TO.C,D7*%
X164750000Y-124250000D03*
X164750000Y-122500000D03*
X161250000Y-122500000D03*
X161250000Y-124250000D03*
%TD*%
D17*
%TO.C,SW1*%
X128712039Y-87751000D03*
X120102039Y-87751000D03*
%TD*%
D18*
%TO.C,D2*%
X123893450Y-77149900D03*
X123893450Y-75099900D03*
%TD*%
D11*
%TO.C,R8*%
X122359550Y-80687000D03*
X122359550Y-78862000D03*
%TD*%
D15*
%TO.C,R23*%
X155500000Y-117337500D03*
X155500000Y-119162500D03*
%TD*%
D19*
%TO.C,C6*%
X138848000Y-81047500D03*
X138848000Y-82772500D03*
%TD*%
D15*
%TO.C,R7*%
X138848000Y-77595800D03*
X138848000Y-79420800D03*
%TD*%
D20*
%TO.C,U3*%
X169740000Y-93060000D03*
X168940000Y-93060000D03*
X168140000Y-93060000D03*
X167340000Y-93060000D03*
X166540000Y-93060000D03*
X165740000Y-93060000D03*
X164940000Y-93060000D03*
X164140000Y-93060000D03*
X163340000Y-93060000D03*
X162540000Y-93060000D03*
X161740000Y-93060000D03*
D21*
X160840000Y-94160000D03*
X160840000Y-94960000D03*
X160840000Y-95760000D03*
X160840000Y-96560000D03*
X160840000Y-97360000D03*
X160840000Y-98160000D03*
X160840000Y-98960000D03*
X160840000Y-99760000D03*
X160840000Y-100560000D03*
X160840000Y-101360000D03*
X160840000Y-102160000D03*
X160840000Y-102960000D03*
X160840000Y-103760000D03*
D20*
X161740000Y-104860000D03*
X162540000Y-104860000D03*
X163340000Y-104860000D03*
X164140000Y-104860000D03*
X164940000Y-104860000D03*
X165740000Y-104860000D03*
X166540000Y-104860000D03*
X167340000Y-104860000D03*
X168140000Y-104860000D03*
X168940000Y-104860000D03*
X169740000Y-104860000D03*
D21*
X170640000Y-103760000D03*
X170640000Y-102960000D03*
X170640000Y-102160000D03*
X170640000Y-101360000D03*
X170640000Y-100560000D03*
X170640000Y-99760000D03*
X170640000Y-98960000D03*
X170640000Y-98160000D03*
X170640000Y-97360000D03*
X170640000Y-96560000D03*
X170640000Y-95760000D03*
X170640000Y-94960000D03*
X170640000Y-94160000D03*
D22*
X167715000Y-96985000D03*
D23*
X165740000Y-96985000D03*
X163765000Y-96985000D03*
X167715000Y-98960000D03*
X165740000Y-98960000D03*
X163765000Y-98960000D03*
X167715000Y-100935000D03*
X165740000Y-100935000D03*
X163765000Y-100935000D03*
D24*
X170690000Y-104910000D03*
X160790000Y-104910000D03*
X160790000Y-93010000D03*
X170690000Y-93010000D03*
%TD*%
D15*
%TO.C,R9*%
X140372000Y-77593900D03*
X140372000Y-79418900D03*
%TD*%
D25*
%TO.C,C12*%
X151124989Y-84525300D03*
X151124989Y-82800300D03*
%TD*%
D15*
%TO.C,TH1*%
X127700000Y-75287500D03*
X127700000Y-77112500D03*
%TD*%
D26*
%TO.C,U1*%
X122836539Y-96670500D03*
X122186539Y-96670500D03*
X121536539Y-96670500D03*
X120886539Y-96670500D03*
X120886539Y-101070500D03*
X121536539Y-101070500D03*
X122186539Y-101070500D03*
X122836539Y-101070500D03*
%TD*%
D15*
%TO.C,R10*%
X141896000Y-77593900D03*
X141896000Y-79418900D03*
%TD*%
%TO.C,R17*%
X142712989Y-90062300D03*
X142712989Y-91887300D03*
%TD*%
D27*
%TO.C,R14*%
X153815489Y-81019300D03*
X151990489Y-81019300D03*
%TD*%
D28*
%TO.C,Q2*%
X135850489Y-84824800D03*
X135850489Y-82924800D03*
X133975489Y-83874800D03*
%TD*%
D29*
%TO.C,R12*%
X120695039Y-94466500D03*
X122520039Y-94466500D03*
%TD*%
D30*
%TO.C,L1*%
X130902039Y-94901000D03*
X130902039Y-104801000D03*
%TD*%
D29*
%TO.C,R13*%
X147825989Y-92668800D03*
X149650989Y-92668800D03*
%TD*%
D31*
%TO.C,R2*%
X123308339Y-103153300D03*
X121658339Y-103153300D03*
%TD*%
D27*
%TO.C,R22*%
X156912500Y-102000000D03*
X155087500Y-102000000D03*
%TD*%
D32*
%TO.C,U2*%
X126398050Y-82185500D03*
X126398050Y-80935500D03*
X125148050Y-82185500D03*
X125148050Y-80935500D03*
D33*
X127710550Y-82560500D03*
X127710550Y-82060500D03*
X127710550Y-81560500D03*
X127710550Y-81060500D03*
X127710550Y-80560500D03*
D34*
X126773050Y-79623000D03*
X126273050Y-79623000D03*
X125773050Y-79623000D03*
X125273050Y-79623000D03*
X124773050Y-79623000D03*
D33*
X123835550Y-80560500D03*
X123835550Y-81060500D03*
X123835550Y-81560500D03*
X123835550Y-82060500D03*
X123835550Y-82560500D03*
D34*
X124773050Y-83498000D03*
X125273050Y-83498000D03*
X125773050Y-83498000D03*
X126273050Y-83498000D03*
X126773050Y-83498000D03*
%TD*%
D10*
%TO.C,C2*%
X121350539Y-106161000D03*
X119625539Y-106161000D03*
%TD*%
D35*
%TO.C,D8*%
X126100000Y-112200000D03*
X122800000Y-112200000D03*
%TD*%
D27*
%TO.C,R18*%
X154524789Y-83053200D03*
X152699789Y-83053200D03*
%TD*%
D28*
%TO.C,Q1*%
X140812989Y-97474800D03*
X140812989Y-95574800D03*
X138937989Y-96524800D03*
%TD*%
D36*
%TO.C,U5*%
X140000000Y-108550000D03*
X142300000Y-108550000D03*
D37*
X142300000Y-102250000D03*
D36*
X144600000Y-108550000D03*
%TD*%
D25*
%TO.C,C17*%
X160500000Y-118862500D03*
X160500000Y-117137500D03*
%TD*%
D15*
%TO.C,R21*%
X138112989Y-90074800D03*
X138112989Y-91899800D03*
%TD*%
D25*
%TO.C,C18*%
X166000000Y-118862500D03*
X166000000Y-117137500D03*
%TD*%
D38*
%TO.C,D1*%
X122814039Y-108741000D03*
X127814039Y-108741000D03*
%TD*%
D39*
%TO.C,C14*%
X147487500Y-112250000D03*
X149212500Y-112250000D03*
%TD*%
D15*
%TO.C,R24*%
X144500000Y-112000000D03*
X144500000Y-113825000D03*
%TD*%
D25*
%TO.C,C3*%
X119321539Y-103163000D03*
X119321539Y-101438000D03*
%TD*%
D39*
%TO.C,C5*%
X117443039Y-93450500D03*
X119168039Y-93450500D03*
%TD*%
D40*
%TO.C,R4*%
X119321539Y-98339500D03*
X119321539Y-96689500D03*
%TD*%
D39*
%TO.C,C10*%
X152732989Y-86156800D03*
X154457989Y-86156800D03*
%TD*%
D18*
%TO.C,D3*%
X126000000Y-77150000D03*
X126000000Y-75100000D03*
%TD*%
D41*
%TO.C,D6*%
X143420000Y-78850800D03*
X143420000Y-77450800D03*
%TD*%
%TO.C,D5*%
X135800000Y-78900000D03*
X135800000Y-77500000D03*
%TD*%
D29*
%TO.C,R20*%
X152701689Y-84577200D03*
X154526689Y-84577200D03*
%TD*%
D39*
%TO.C,C13*%
X147500000Y-110500000D03*
X149225000Y-110500000D03*
%TD*%
D10*
%TO.C,C9*%
X149600989Y-91144800D03*
X147875989Y-91144800D03*
%TD*%
D27*
%TO.C,R11*%
X119218039Y-94974500D03*
X117393039Y-94974500D03*
%TD*%
D39*
%TO.C,C15*%
X147500000Y-104500000D03*
X149225000Y-104500000D03*
%TD*%
D15*
%TO.C,R6*%
X137324000Y-77593900D03*
X137324000Y-79418900D03*
%TD*%
D11*
%TO.C,R19*%
X150312989Y-79899800D03*
X150312989Y-78074800D03*
%TD*%
D29*
%TO.C,R1*%
X129229350Y-83438200D03*
X131054350Y-83438200D03*
%TD*%
D15*
%TO.C,R15*%
X140400000Y-86287500D03*
X140400000Y-88112500D03*
%TD*%
D10*
%TO.C,C1*%
X128716539Y-91977000D03*
X126991539Y-91977000D03*
%TD*%
D39*
%TO.C,C16*%
X147500000Y-106500000D03*
X149225000Y-106500000D03*
%TD*%
D10*
%TO.C,C4*%
X122317550Y-82576500D03*
X120592550Y-82576500D03*
%TD*%
D11*
%TO.C,R5*%
X120800000Y-80712500D03*
X120800000Y-78887500D03*
%TD*%
D18*
%TO.C,D9*%
X144500000Y-118025000D03*
X144500000Y-115975000D03*
%TD*%
D10*
%TO.C,C11*%
X146298989Y-92668800D03*
X144573989Y-92668800D03*
%TD*%
D19*
%TO.C,C7*%
X140400000Y-81037500D03*
X140400000Y-82762500D03*
%TD*%
D42*
%TO.C,P1*%
X142873011Y-74989000D03*
X142073011Y-74989000D03*
D43*
X140873011Y-74989000D03*
X139873011Y-74989000D03*
X139373011Y-74989000D03*
X138373011Y-74989000D03*
D42*
X137173011Y-74989000D03*
X136373011Y-74989000D03*
X136373011Y-74989000D03*
X137173011Y-74989000D03*
D43*
X137873011Y-74989000D03*
X138873011Y-74989000D03*
X140373011Y-74989000D03*
X141373011Y-74989000D03*
D42*
X142073011Y-74989000D03*
X142873011Y-74989000D03*
%TD*%
D44*
%TO.C,D4*%
X132670000Y-77860500D03*
X134070000Y-77860500D03*
%TD*%
M02*
